<svg viewBox="0 0 319 45" xmlns="http://www.w3.org/2000/svg">
    <g fill="#6366F1">
        <path opacity="0.1" d="M39 12C31.8 12 27.3 15.6 25.5 22.8C28.2 19.2 31.35 17.85 34.95 18.75C37.004 19.263 38.472 20.754 40.097 22.403C42.744 25.09 45.808 28.2 52.5 28.2C59.7 28.2 64.2 24.6 66 17.4C63.3 21 60.15 22.35 56.55 21.45C54.496 20.937 53.028 19.446 51.403 17.797C48.756 15.11 45.692 12 39 12ZM25.5 28.2C18.3 28.2 13.8 31.8 12 39C14.7 35.4 17.85 34.05 21.45 34.95C23.504 35.464 24.972 36.954 26.597 38.603C29.244 41.29 32.308 44.4 39 44.4C46.2 44.4 50.7 40.8 52.5 33.6C49.8 37.2 46.65 38.55 43.05 37.65C40.996 37.137 39.528 35.646 37.903 33.997C35.256 31.31 32.192 28.2 25.5 28.2Z" />
        <path opacity="0.25" d="M35 8C27.8 8 23.3 11.6 21.5 18.8C24.2 15.2 27.35 13.85 30.95 14.75C33.004 15.263 34.472 16.754 36.097 18.403C38.744 21.09 41.808 24.2 48.5 24.2C55.7 24.2 60.2 20.6 62 13.4C59.3 17 56.15 18.35 52.55 17.45C50.496 16.937 49.028 15.446 47.403 13.797C44.756 11.11 41.692 8 35 8ZM21.5 24.2C14.3 24.2 9.8 27.8 8 35C10.7 31.4 13.85 30.05 17.45 30.95C19.504 31.464 20.972 32.954 22.597 34.603C25.244 37.29 28.308 40.4 35 40.4C42.2 40.4 46.7 36.8 48.5 29.6C45.8 33.2 42.65 34.55 39.05 33.65C36.996 33.137 35.528 31.646 33.903 29.997C31.256 27.31 28.192 24.2 21.5 24.2Z" />
        <path opacity="0.5" d="M31 4C23.8 4 19.3 7.6 17.5 14.8C20.2 11.2 23.35 9.85 26.95 10.75C29.004 11.263 30.472 12.754 32.097 14.403C34.744 17.09 37.808 20.2 44.5 20.2C51.7 20.2 56.2 16.6 58 9.4C55.3 13 52.15 14.35 48.55 13.45C46.496 12.937 45.028 11.446 43.403 9.797C40.756 7.11 37.692 4 31 4ZM17.5 20.2C10.3 20.2 5.8 23.8 4 31C6.7 27.4 9.85 26.05 13.45 26.95C15.504 27.464 16.972 28.954 18.597 30.603C21.244 33.29 24.308 36.4 31 36.4C38.2 36.4 42.7 32.8 44.5 25.6C41.8 29.2 38.65 30.55 35.05 29.65C32.996 29.137 31.528 27.646 29.903 25.997C27.256 23.31 24.192 20.2 17.5 20.2Z" />
        <path d="M27 0C19.8 0 15.3 3.6 13.5 10.8C16.2 7.2 19.35 5.85 22.95 6.75C25.004 7.263 26.472 8.754 28.097 10.403C30.744 13.09 33.808 16.2 40.5 16.2C47.7 16.2 52.2 12.6 54 5.4C51.3 9 48.15 10.35 44.55 9.45C42.496 8.937 41.028 7.446 39.403 5.797C36.756 3.11 33.692 0 27 0ZM13.5 16.2C6.3 16.2 1.8 19.8 0 27C2.7 23.4 5.85 22.05 9.45 22.95C11.504 23.464 12.972 24.954 14.597 26.603C17.244 29.29 20.308 32.4 27 32.4C34.2 32.4 38.7 28.8 40.5 21.6C37.8 25.2 34.65 26.55 31.05 25.65C28.996 25.137 27.528 23.646 25.903 21.997C23.256 19.31 20.192 16.2 13.5 16.2Z" />
    </g>
    <path fill="black" d="M86.7358 14.3636H82.7088V9.65909H78.8864V14.3636H76.0099V17.4318H78.8864V29.027C78.8736 32.5938 81.5966 34.3196 84.6136 34.2557C85.8281 34.2429 86.6463 34.0128 87.0938 33.8466L86.4034 30.6889C86.1477 30.7401 85.6747 30.8551 85.0611 30.8551C83.821 30.8551 82.7088 30.446 82.7088 28.2344V17.4318H86.7358V14.3636ZM95.2386 34.4347C98.4858 34.4347 100.314 32.7855 101.043 31.3153H101.196V34H104.929V20.9602C104.929 15.2457 100.429 14.108 97.3096 14.108C93.7557 14.108 90.4829 15.5398 89.2045 19.1193L92.7969 19.9375C93.3594 18.544 94.7912 17.2017 97.3608 17.2017C99.8281 17.2017 101.094 18.4929 101.094 20.7173V20.8068C101.094 22.2003 99.6619 22.1747 96.1335 22.5838C92.4133 23.0185 88.6037 23.9901 88.6037 28.4517C88.6037 32.3125 91.5057 34.4347 95.2386 34.4347ZM96.0696 31.3665C93.9091 31.3665 92.3494 30.3949 92.3494 28.5028C92.3494 26.4574 94.1648 25.7287 96.3764 25.4347C97.6165 25.2685 100.557 24.9361 101.107 24.3864V26.9176C101.107 29.2443 99.2528 31.3665 96.0696 31.3665ZM108.58 34H112.403V14.3636H108.58V34ZM110.511 11.3338C111.827 11.3338 112.927 10.3111 112.927 9.05824C112.927 7.8054 111.827 6.76989 110.511 6.76989C109.181 6.76989 108.094 7.8054 108.094 9.05824C108.094 10.3111 109.181 11.3338 110.511 11.3338ZM116.105 7.81818V29.4233C116.105 32.5298 117.703 34.1918 121.014 34.1406C122.037 34.1278 122.855 33.9616 123.392 33.7955L122.702 30.7401C122.433 30.8168 122.165 30.9062 121.5 30.919C120.273 30.9574 119.928 30.3182 119.928 28.6307V7.81818H116.105ZM128.731 34H132.617L136.606 19.8224H136.9L140.888 34H144.788L150.553 14.3636H146.603L142.78 28.7202H142.589L138.753 14.3636H134.803L130.942 28.7841H130.751L126.903 14.3636H122.952L128.731 34ZM152.741 34H156.563V14.3636H152.741V34ZM154.671 11.3338C155.988 11.3338 157.087 10.3111 157.087 9.05824C157.087 7.8054 155.988 6.76989 154.671 6.76989C153.342 6.76989 152.255 7.8054 152.255 9.05824C152.255 10.3111 153.342 11.3338 154.671 11.3338ZM164.088 22.3409C164.088 19.2088 166.006 17.419 168.665 17.419C171.26 17.419 172.832 19.1193 172.832 21.9702V34H176.655V21.5099C176.655 16.652 173.983 14.108 169.969 14.108C167.016 14.108 165.085 15.4759 164.177 17.5597H163.935V14.3636H160.266V34H164.088V22.3409ZM187.692 34.3835C191.272 34.3835 192.678 32.1974 193.368 30.9446H193.688V34H197.421V7.81818H193.598V17.5469H193.368C192.678 16.3324 191.374 14.108 187.718 14.108C182.975 14.108 179.485 17.8537 179.485 24.2202C179.485 30.5739 182.924 34.3835 187.692 34.3835ZM188.536 31.1236C185.122 31.1236 183.345 28.1193 183.345 24.1818C183.345 20.2827 185.084 17.3551 188.536 17.3551C191.872 17.3551 193.662 20.0781 193.662 24.1818C193.662 28.3111 191.834 31.1236 188.536 31.1236ZM213.006 21.2798H201.398V24.5909H213.006V21.2798ZM216.66 34H220.483V21.8935C220.483 19.2472 222.337 17.4062 224.51 17.4062C226.632 17.4062 228.102 18.8125 228.102 20.9474V34H231.912V21.4844C231.912 19.1193 233.356 17.4062 235.849 17.4062C237.869 17.4062 239.531 18.5312 239.531 21.1903V34H243.354V20.8324C243.354 16.3452 240.848 14.108 237.294 14.108C234.469 14.108 232.346 15.4631 231.4 17.5597H231.196C230.339 15.4119 228.537 14.108 225.916 14.108C223.321 14.108 221.39 15.3991 220.572 17.5597H220.329V14.3636H216.66V34ZM255.5 34.3963C259.783 34.3963 262.812 32.2869 263.682 29.0909L260.064 28.4389C259.373 30.2926 257.712 31.2386 255.538 31.2386C252.265 31.2386 250.067 29.1165 249.964 25.3324H263.925V23.9773C263.925 16.8821 259.68 14.108 255.231 14.108C249.76 14.108 246.155 18.2756 246.155 24.3097C246.155 30.4077 249.709 34.3963 255.5 34.3963ZM249.977 22.4688C250.131 19.6818 252.15 17.2656 255.257 17.2656C258.223 17.2656 260.166 19.4645 260.179 22.4688H249.977ZM266.726 34H270.548V22.0085C270.548 19.4517 272.53 17.598 275.176 17.598C275.917 17.598 276.493 17.7514 276.953 17.9815L278.18 14.7855C277.528 14.3509 276.685 14.0696 275.611 14.0696C273.284 14.0696 271.341 15.3736 270.625 17.483H270.42V14.3636H266.726V34ZM287.089 41.7727C292.088 41.7727 295.948 39.4844 295.948 34.4347V14.3636H292.203V17.5469H291.921C291.244 16.3324 289.889 14.108 286.232 14.108C281.49 14.108 277.999 17.8537 277.999 24.1051C277.999 30.3693 281.566 33.706 286.207 33.706C289.812 33.706 291.205 31.6733 291.896 30.4205H292.139V34.2812C292.139 37.3622 290.029 38.6918 287.127 38.6918C283.944 38.6918 282.704 37.0938 282.026 35.9688L278.741 37.3239C279.776 39.7273 282.397 41.7727 287.089 41.7727ZM287.051 30.5355C283.637 30.5355 281.86 27.9148 281.86 24.054C281.86 20.2827 283.599 17.3551 287.051 17.3551C290.387 17.3551 292.177 20.0781 292.177 24.054C292.177 28.1065 290.349 30.5355 287.051 30.5355ZM308.098 34.3963C312.38 34.3963 315.41 32.2869 316.28 29.0909L312.662 28.4389C311.971 30.2926 310.309 31.2386 308.136 31.2386C304.863 31.2386 302.665 29.1165 302.562 25.3324H316.523V23.9773C316.523 16.8821 312.278 14.108 307.829 14.108C302.358 14.108 298.753 18.2756 298.753 24.3097C298.753 30.4077 302.307 34.3963 308.098 34.3963ZM302.575 22.4688C302.729 19.6818 304.748 17.2656 307.855 17.2656C310.821 17.2656 312.764 19.4645 312.777 22.4688H302.575Z" />
</svg>
